<?xml version="1.0" encoding="UTF-8" standalone="no"?>
<svg
   width="1374"
   height="577"
   viewBox="0 0 1374 577"
   version="1.1"
   id="svg32"
   sodipodi:docname="Logo.svg"
   inkscape:version="1.2 (dc2aedaf03, 2022-05-15)"
   inkscape:export-filename="Logo.png"
   inkscape:export-xdpi="96"
   inkscape:export-ydpi="96"
   xmlns:inkscape="http://www.inkscape.org/namespaces/inkscape"
   xmlns:sodipodi="http://sodipodi.sourceforge.net/DTD/sodipodi-0.dtd"
   xmlns="http://www.w3.org/2000/svg"
   xmlns:svg="http://www.w3.org/2000/svg">
  <sodipodi:namedview
     id="namedview34"
     pagecolor="#ffffff"
     bordercolor="#000000"
     borderopacity="0.25"
     inkscape:showpageshadow="2"
     inkscape:pageopacity="0.0"
     inkscape:pagecheckerboard="0"
     inkscape:deskcolor="#d1d1d1"
     showgrid="false"
     inkscape:zoom="0.69835801"
     inkscape:cx="235.55254"
     inkscape:cy="403.08838"
     inkscape:window-width="1920"
     inkscape:window-height="988"
     inkscape:window-x="1920"
     inkscape:window-y="0"
     inkscape:window-maximized="1"
     inkscape:current-layer="Gruppe_9" />
  <defs
     id="defs5">
    <clipPath
       id="clip-Logo">
      <rect
         width="1374"
         height="577"
         id="rect2" />
    </clipPath>
  </defs>
  <g
     id="Logo"
     clip-path="url(#clip-Logo)">
    <g
       id="Gruppe_9"
       data-name="Gruppe 9"
       transform="translate(-1796 -6303.561)">
      <g
         id="Gruppe_8"
         data-name="Gruppe 8"
         transform="translate(-227.48 -854.529)">
        <g
           id="g14"
           transform="translate(2084.783,7215.85)">
          <g
             id="g16">
            <g
               id="g22">
              <g
                 id="g24">
                <path
                   id="path36"
                   d="m 456.511,-310.529 c -91.639,88.312 -94.338,234.713 -6.027,326.344 v 0 a 230.137,230.137 0 0 0 166.223,70.534 v 0 A 230.026,230.026 0 0 0 776.829,21.842 v 0 a 28.888,28.888 0 0 0 0.76,-40.829 v 0 a 28.9,28.9 0 0 0 -40.844,-0.76 v 0 A 172.261,172.261 0 0 1 613.476,28.576 v 0 a 171.877,171.877 0 0 1 -121.4,-52.838 v 0 a 171.859,171.859 0 0 1 -48.323,-123.276 v 0 a 171.933,171.933 0 0 1 52.838,-121.4 v 0 a 171.564,171.564 0 0 1 123.269,-48.316 v 0 a 171.909,171.909 0 0 1 121.41,52.838 v 0 a 28.9,28.9 0 0 0 40.837,0.76 v 0 a 28.9,28.9 0 0 0 0.752,-40.844 v 0 A 229.286,229.286 0 0 0 620.937,-375 v 0 q -1.594,-0.022 -3.187,-0.022 v 0 c -60.627,0 -117.663,22.521 -161.236,64.5"
                   transform="translate(-385.976,375.03)"
                   fill="#8c195f" />
              </g>
            </g>
          </g>
        </g>
        <g
           id="g38"
           transform="matrix(0.99902211,0,0,1,2027.4854,7157.974)">
          <g
             id="g40">
            <g
               id="g46">
              <g
                 id="g48">
                <path
                   id="path62"
                   d="m 375.518,-96.922 c 0,159.112 129.436,288.547 288.547,288.547 v 0 c 159.119,0 288.569,-129.436 288.569,-288.547 v 0 A 28.876,28.876 0 0 0 923.755,-125.8 v 0 a 28.876,28.876 0 0 0 -28.879,28.879 v 0 c 0,127.26 -103.544,230.789 -230.811,230.789 v 0 c -127.252,0 -230.789,-103.529 -230.789,-230.789 v 0 c 0,-127.267 103.537,-230.811 230.789,-230.811 v 0 a 28.878,28.878 0 0 0 28.886,-28.879 v 0 a 28.887,28.887 0 0 0 -28.886,-28.879 v 0 c -159.112,0 -288.547,129.451 -288.547,288.569"
                   transform="translate(-375.518,385.491)"
                   fill="#191919" />
              </g>
            </g>
          </g>
        </g>
        <g
           id="g64"
           transform="translate(2142.432,7273.498)">
          <g
             id="g66">
            <g
               id="g72">
              <g
                 id="g74">
                <path
                   id="path86"
                   d="m 554.407,-363.961 c -95.054,8.3 -165.64,92.376 -157.348,187.423 v 0 c 7.841,89.971 83.576,158.02 172.264,158.02 v 0 q 7.513,0 15.151,-0.657 v 0 a 28.879,28.879 0 0 0 26.26,-31.284 v 0 a 28.951,28.951 0 0 0 -31.276,-26.26 v 0 A 115.308,115.308 0 0 1 454.6,-181.547 v 0 a 115.4,115.4 0 0 1 104.82,-124.862 v 0 a 115.377,115.377 0 0 1 124.87,104.828 v 0 a 28.974,28.974 0 0 0 31.277,26.26 v 0 a 28.888,28.888 0 0 0 26.262,-31.279 v 0 c -7.863,-90 -83.738,-158.012 -172.382,-158.005 v 0 c -4.972,0 -10,0.214 -15.041,0.649"
                   transform="translate(-396.397,364.61)"
                   fill="#d72864" />
              </g>
            </g>
          </g>
        </g>
      </g>
      <text
         id="OPEN"
         transform="translate(2413 6256)"
         fill="#191919"
         font-size="286"
         font-family="Ubuntu-Light, Ubuntu"
         font-weight="300"><tspan
           x="0"
           y="267"
           id="tspan23">OPEN</tspan></text>
      <g
         id="Gruppe_38"
         data-name="Gruppe 38"
         transform="translate(2420 6598.761)">
        <path
           id="Pfad_76"
           data-name="Pfad 76"
           d="M246.6,191.284A140.864,140.864,0,1,0,387.46,330.207,138.41,138.41,0,0,0,246.6,191.283ZM246.6,431a96.09,96.09,0,0,1-93.043-100.791,93.043,93.043,0,1,1,186.005,0A96.091,96.091,0,0,1,246.6,431Z"
           transform="translate(-105.744 -191.233)"
           fill="#191919" />
        <path
           id="Pfad_77"
           data-name="Pfad 77"
           d="M241.735,312.506c-27.929-11.55-52.04-21.528-52.04-43.762,0-19.972,18.737-35.035,43.586-35.035a101.064,101.064,0,0,1,60.51,23.036L313.747,219.3a118.711,118.711,0,0,0-80.065-27.993c-51.7,0-90.668,33.688-90.668,78.22,0,46.826,40.923,64.488,77,80.049,28.6,12.336,53.307,22.972,53.307,45.655,0,24.464-21.111,35.4-42.03,35.4a110.383,110.383,0,0,1-68.579-28.2L137.7,437.088a134.3,134.3,0,0,0,92.818,35.966c52.457,0,89.112-32.485,89.112-78.99C319.667,344.734,278.279,327.618,241.735,312.506Z"
           transform="translate(194.047 -191.26)"
           fill="#191919" />
        <path
           id="Pfad_78"
           data-name="Pfad 78"
           d="M336.937,191.712H160.3v38.132h66.541V464.055h43.2V229.844h66.927Z"
           transform="translate(406.031 -186.994)"
           fill="#191919" />
      </g>
    </g>
  </g>
</svg>
