<svg xmlns="http://www.w3.org/2000/svg" xmlns:xlink="http://www.w3.org/1999/xlink" width="1374" height="577" viewBox="0 0 1374 577">
  <defs>
    <clipPath id="clip-Logo_light">
      <rect width="1374" height="577"/>
    </clipPath>
  </defs>
  <g id="Logo_light" clip-path="url(#clip-Logo_light)">
    <g id="Gruppe_11" data-name="Gruppe 11" transform="translate(-1789.442 -8800.562)">
      <g id="Gruppe_3" data-name="Gruppe 3" transform="translate(-227.48 1642.471)">
        <g id="g14" transform="translate(2074.783 7215.85)">
          <g id="g16">
            <g id="g22">
              <g id="g24">
                <path id="path36" d="M456.511-310.529c-91.639,88.312-94.338,234.713-6.027,326.344h0A230.137,230.137,0,0,0,616.707,86.349h0A230.026,230.026,0,0,0,776.829,21.842h0a28.888,28.888,0,0,0,.76-40.829h0a28.9,28.9,0,0,0-40.844-.76h0A172.261,172.261,0,0,1,613.476,28.576h0a171.877,171.877,0,0,1-121.4-52.838h0a171.859,171.859,0,0,1-48.323-123.276h0a171.933,171.933,0,0,1,52.838-121.4h0a171.564,171.564,0,0,1,123.269-48.316h0a171.909,171.909,0,0,1,121.41,52.838h0a28.9,28.9,0,0,0,40.837.76h0a28.9,28.9,0,0,0,.752-40.844h0a229.286,229.286,0,0,0-161.922-70.5h0q-1.594-.022-3.187-.022h0c-60.627,0-117.663,22.521-161.236,64.5" transform="translate(-385.976 375.03)" fill="#8c195f"/>
              </g>
            </g>
          </g>
        </g>
        <g id="g38" transform="translate(2016.921 7157.974)">
          <g id="g40">
            <g id="g46">
              <g id="g48">
                <path id="path62" d="M375.518-96.922c0,159.112,129.436,288.547,288.547,288.547h0c159.119,0,288.569-129.436,288.569-288.547h0A28.876,28.876,0,0,0,923.755-125.8h0a28.876,28.876,0,0,0-28.879,28.879h0c0,127.26-103.544,230.789-230.811,230.789h0c-127.252,0-230.789-103.529-230.789-230.789h0c0-127.267,103.537-230.811,230.789-230.811h0a28.878,28.878,0,0,0,28.886-28.879h0a28.887,28.887,0,0,0-28.886-28.879h0c-159.112,0-288.547,129.451-288.547,288.569" transform="translate(-375.518 385.491)" fill="#f1f1f1"/>
              </g>
            </g>
          </g>
        </g>
        <g id="g64" transform="translate(2132.432 7273.498)">
          <g id="g66">
            <g id="g72">
              <g id="g74">
                <path id="path86" d="M554.407-363.961c-95.054,8.3-165.64,92.376-157.348,187.423h0c7.841,89.971,83.576,158.02,172.264,158.02h0q7.513,0,15.151-.657h0a28.879,28.879,0,0,0,26.26-31.284h0a28.951,28.951,0,0,0-31.276-26.26h0A115.308,115.308,0,0,1,454.6-181.547h0a115.4,115.4,0,0,1,104.82-124.862h0a115.377,115.377,0,0,1,124.87,104.828h0a28.974,28.974,0,0,0,31.277,26.26h0A28.888,28.888,0,0,0,741.829-206.6h0c-7.863-90-83.738-158.012-172.382-158.005h0c-4.972,0-10,.214-15.041.649" transform="translate(-396.397 364.61)" fill="#d72864"/>
              </g>
            </g>
          </g>
        </g>
      </g>
      <text id="OPEN" transform="translate(2413 8753)" fill="#f1f1f1" font-size="286" font-family="Ubuntu-Light, Ubuntu" font-weight="300"><tspan x="0" y="267">OPEN</tspan></text>
      <g id="Gruppe_38" data-name="Gruppe 38" transform="translate(2420 9095.761)">
        <path id="Pfad_76" data-name="Pfad 76" d="M246.6,191.284A140.864,140.864,0,1,0,387.46,330.207,138.41,138.41,0,0,0,246.6,191.283ZM246.6,431a96.09,96.09,0,0,1-93.043-100.791,93.043,93.043,0,1,1,186.005,0A96.091,96.091,0,0,1,246.6,431Z" transform="translate(-105.744 -191.233)" fill="#f1f1f1"/>
        <path id="Pfad_77" data-name="Pfad 77" d="M241.735,312.506c-27.929-11.55-52.04-21.528-52.04-43.762,0-19.972,18.737-35.035,43.586-35.035a101.064,101.064,0,0,1,60.51,23.036L313.747,219.3a118.711,118.711,0,0,0-80.065-27.993c-51.7,0-90.668,33.688-90.668,78.22,0,46.826,40.923,64.488,77,80.049,28.6,12.336,53.307,22.972,53.307,45.655,0,24.464-21.111,35.4-42.03,35.4a110.383,110.383,0,0,1-68.579-28.2L137.7,437.088a134.3,134.3,0,0,0,92.818,35.966c52.457,0,89.112-32.485,89.112-78.99C319.667,344.734,278.279,327.618,241.735,312.506Z" transform="translate(194.047 -191.26)" fill="#f1f1f1"/>
        <path id="Pfad_78" data-name="Pfad 78" d="M336.937,191.712H160.3v38.132h66.541V464.055h43.2V229.844h66.927Z" transform="translate(406.031 -186.994)" fill="#f1f1f1"/>
      </g>
    </g>
  </g>
</svg>
