<svg xmlns="http://www.w3.org/2000/svg" viewBox="0 0 294.67 205.02"><defs><style>.cls-1{font-size:45px;fill:#175477;font-family:MyriadPro-Bold, Myriad Pro;font-weight:700;}.cls-2{letter-spacing:0em;}.cls-3{fill:#c8272a;}.cls-4{fill:#c8262a;}.cls-4,.cls-5,.cls-6,.cls-7,.cls-8,.cls-9{fill-rule:evenodd;}.cls-5{fill:#cdcfce;}.cls-6{fill:#ef442b;}.cls-7{fill:#818486;}.cls-8{fill:#0087bd;}.cls-9{fill:#175679;}.cls-10{fill:none;}</style></defs><g id="open_HSR" data-name="open\HSR"><text class="cls-1" transform="translate(47.73 185.63)">o<tspan class="cls-2" x="25.96" y="0">p</tspan><tspan x="53.01" y="0">en</tspan><tspan class="cls-3" x="103.14" y="0">\OST</tspan></text></g><g id="symbol"><path class="cls-4" d="M364.46,398V377.59a13.19,13.19,0,0,1-10.63-7.72h-38l5.19,3,14.49,8.36h0L350,389.6l14.5,8.36Zm0-46.68V330.9L350,339.26l-14.48,8.37L321,356l-5.19,3h38a13.16,13.16,0,0,1,10.63-7.71Zm-29,29.81Z" transform="translate(-159.17 -292.17)"/><path class="cls-5" d="M306.5,353.62V297.44l-14.15,8.17V329.1l14.15,24.52Zm-14.15,2.57v-5.61L297.2,359h0Zm0-50.58-.34.19-3.15,1.83a13.15,13.15,0,0,1-1.37,13.06l4.86,8.41V305.61Zm0,45v5.61L292,356l-14.49-8.36h0L263,339.26l-14.49-8.36L263,322.53l3.16-1.82a13.16,13.16,0,0,0,12,5.35Z" transform="translate(-159.17 -292.17)"/><path class="cls-6" d="M320.66,305.61l.33.19,3.15,1.82a13.17,13.17,0,0,0,1.37,13.07l-4.85,8.41V305.61Zm0,50.58.33-.2,14.49-8.36L350,339.26l14.49-8.36L350,322.53l-3.16-1.82a13.17,13.17,0,0,1-12,5.35l-14.15,24.52ZM306.5,297.43l14.16,8.18V329.1L306.5,353.63h0V330.9h0V297.43Zm14.16,53.15L315.8,359l4.86-2.8v-5.61ZM306.5,330.9Z" transform="translate(-159.17 -292.17)"/><path class="cls-7" d="M248.54,330.9v20.37A13.19,13.19,0,0,1,259.18,359h38L292,356l-14.48-8.36h0L263,339.26l-14.5-8.36Zm0,46.55v20.37L263,389.46l14.48-8.37L292,372.73l5.19-3h-38a13.17,13.17,0,0,1-10.63,7.72Zm29-29.82Z" transform="translate(-159.17 -292.17)"/><path class="cls-8" d="M306.5,431.28l-14.15-8.17v-23.5L306.5,375.1v22.72h0v33.46Zm-14.15-53.14,4.85-8.41-4.85,2.8v5.61Zm14.15,19.68Zm-14.15,25.29-.34-.2-3.15-1.82A13.2,13.2,0,0,0,287.49,408l4.86-8.41v23.5Zm0-50.58-.34.2-14.49,8.36L263,389.46l-14.49,8.36L263,406.18l3.16,1.83a13.19,13.19,0,0,1,12-5.36l14.16-24.51Z" transform="translate(-159.17 -292.17)"/><path class="cls-9" d="M320.66,372.53l.33.2,14.49,8.36L350,389.46l14.49,8.36L350,406.19,346.81,408a13.15,13.15,0,0,0-12-5.36l-14.15-24.51v-5.61Zm0,50.58.33-.2,3.15-1.82A13.17,13.17,0,0,1,325.51,408l-4.85-8.41Zm-4.86-53.38,4.86,2.8v5.61l-4.86-8.41Zm4.86,29.88L306.5,375.1v22.72h0v33.46l14.16-8.17Z" transform="translate(-159.17 -292.17)"/><rect id="_Slice_" data-name="&lt;Slice&gt;" class="cls-10" x="83.66" width="125" height="142"/><rect id="_Slice_2" data-name="&lt;Slice&gt;" class="cls-10" x="45.33" y="0.33" width="205" height="199"/><rect id="_Slice_3" data-name="&lt;Slice&gt;" class="cls-10" x="45.33" y="0.33" width="205" height="199"/></g></svg>