<?xml version="1.0" encoding="UTF-8" standalone="no"?>
<svg
   xmlns:dc="http://purl.org/dc/elements/1.1/"
   xmlns:cc="http://creativecommons.org/ns#"
   xmlns:rdf="http://www.w3.org/1999/02/22-rdf-syntax-ns#"
   xmlns:svg="http://www.w3.org/2000/svg"
   xmlns="http://www.w3.org/2000/svg"
   xmlns:sodipodi="http://sodipodi.sourceforge.net/DTD/sodipodi-0.dtd"
   xmlns:inkscape="http://www.inkscape.org/namespaces/inkscape"
   viewBox="0 0 512 337.84"
   version="1.1"
   id="svg3855"
   sodipodi:docname="open-hsr-logo.svg"
   inkscape:version="0.92.2 2405546, 2018-03-11">
  <metadata
     id="metadata3859">
    <rdf:RDF>
      <cc:Work
         rdf:about="">
        <dc:format>image/svg+xml</dc:format>
        <dc:type
           rdf:resource="http://purl.org/dc/dcmitype/StillImage" />
      </cc:Work>
    </rdf:RDF>
  </metadata>
  <sodipodi:namedview
     pagecolor="#ffffff"
     bordercolor="#666666"
     borderopacity="1"
     objecttolerance="10"
     gridtolerance="10"
     guidetolerance="10"
     inkscape:pageopacity="0"
     inkscape:pageshadow="2"
     inkscape:window-width="2560"
     inkscape:window-height="1440"
     id="namedview3857"
     showgrid="false"
     inkscape:zoom="2.1132812"
     inkscape:cx="192.8281"
     inkscape:cy="168.92"
     inkscape:window-x="0"
     inkscape:window-y="0"
     inkscape:window-maximized="0"
     inkscape:current-layer="svg3855" />
  <defs
     id="defs3815">
    <style
       id="style3806">.cls-1{stroke:#ababab;stroke-miterlimit:2.61;stroke-width:0.22px;fill:url(#GradientFill_1);}.cls-2{fill:#1a5075;}.cls-3{fill:#c61e1e;}.cls-4{fill:#c61d1d;}.cls-4,.cls-5,.cls-6,.cls-7,.cls-8,.cls-9{fill-rule:evenodd;}.cls-5{fill:#d7d7d7;}.cls-6{fill:#e6361f;}.cls-7{fill:#8b8c8c;}.cls-8{fill:#0083bc;}.cls-9{fill:#1a4f74;}.cls-10{fill:none;}</style>
    <radialGradient
       id="GradientFill_1"
       cx="256"
       cy="169"
       r="259.51"
       gradientUnits="userSpaceOnUse">
      <stop
         offset="0"
         stop-color="#fff"
         id="stop3808" />
      <stop
         offset="0.31"
         stop-color="#fff"
         id="stop3810" />
      <stop
         offset="1"
         stop-color="#f6f6f6"
         id="stop3812" />
    </radialGradient>
  </defs>
  <title
     id="title3817">open-hsr-logo</title>
  <g
     id="open_HSR"
     data-name="open\HSR">
    <path
       class="cls-2"
       d="M231,466.55c0,8.05-5.71,11.75-11.61,11.75-6.44,0-11.38-4.23-11.38-11.34s4.68-11.65,11.74-11.65C226.49,455.3,231,459.93,231,466.55Zm-15.93.23c0,3.78,1.57,6.61,4.5,6.61,2.66,0,4.36-2.65,4.36-6.61,0-3.29-1.26-6.62-4.36-6.62C216.28,460.16,215.06,463.53,215.06,466.77Z"
       transform="translate(-50.5 -227.5)"
       id="path3822" />
    <path
       class="cls-2"
       d="M235.22,463.17c0-2.88-.09-5.36-.18-7.38H241l.31,3.06h.09a8.44,8.44,0,0,1,7.33-3.55c4.81,0,9.13,4.18,9.13,11.2,0,8-5.08,11.79-10,11.79a6.83,6.83,0,0,1-5.71-2.52h-.09v10.93h-6.84Zm6.84,5.17a6.79,6.79,0,0,0,.14,1.44,4.14,4.14,0,0,0,4,3.24c3,0,4.72-2.48,4.72-6.21,0-3.51-1.57-6.17-4.63-6.17a4.3,4.3,0,0,0-4.09,3.46,5.28,5.28,0,0,0-.14,1.21Z"
       transform="translate(-50.5 -227.5)"
       id="path3824" />
    <path
       class="cls-2"
       d="M267.53,469c.23,2.83,3,4.18,6.21,4.18a19.38,19.38,0,0,0,6.07-.9l.9,4.63a21.71,21.71,0,0,1-8,1.35c-7.47,0-11.74-4.32-11.74-11.21,0-5.58,3.46-11.74,11.11-11.74,7.11,0,9.81,5.54,9.81,11a16.27,16.27,0,0,1-.23,2.7Zm8.05-4.68c0-1.67-.72-4.46-3.87-4.46-2.88,0-4,2.61-4.23,4.46Z"
       transform="translate(-50.5 -227.5)"
       id="path3826" />
    <path
       class="cls-2"
       d="M286,462.81c0-2.75-.09-5.08-.18-7h5.94l.31,3h.13A8.06,8.06,0,0,1,299,455.3c4.5,0,7.87,3,7.87,9.45v13h-6.84V465.6c0-2.83-1-4.77-3.46-4.77a3.65,3.65,0,0,0-3.46,2.56,4.71,4.71,0,0,0-.27,1.71V477.8H286Z"
       transform="translate(-50.5 -227.5)"
       id="path3828" />
    <path
       class="cls-3"
       d="M319.28,479.6,310.19,447h4.54l9,32.62Z"
       transform="translate(-50.5 -227.5)"
       id="path3830" />
    <path
       class="cls-3"
       d="M334.36,447.47v11.66h11.29V447.47h6.84V477.8h-6.84V465.11H334.36V477.8h-6.88V447.47Z"
       transform="translate(-50.5 -227.5)"
       id="path3832" />
    <path
       class="cls-3"
       d="M358.7,470.73a17.51,17.51,0,0,0,7.6,1.89c3.15,0,4.81-1.3,4.81-3.29s-1.44-3-5.08-4.27c-5-1.75-8.32-4.54-8.32-9,0-5.17,4.32-9.13,11.47-9.13a18.58,18.58,0,0,1,7.74,1.53L375.4,454a14.42,14.42,0,0,0-6.34-1.44c-3,0-4.41,1.35-4.41,2.92,0,1.94,1.71,2.79,5.63,4.28,5.35,2,7.87,4.77,7.87,9,0,5.08-3.91,9.41-12.24,9.41a19.86,19.86,0,0,1-8.59-1.84Z"
       transform="translate(-50.5 -227.5)"
       id="path3834" />
    <path
       class="cls-3"
       d="M382.78,447.88a60.22,60.22,0,0,1,9.13-.63c4.5,0,7.65.67,9.81,2.38a7.7,7.7,0,0,1,2.79,6.34,8,8,0,0,1-5.35,7.47v.13c2.11.86,3.28,2.88,4,5.67.94,3.42,1.89,7.38,2.47,8.55h-7a38,38,0,0,1-2.12-7.06c-.81-3.78-2.12-4.82-4.9-4.86h-2.07V477.8h-6.79Zm6.79,13h2.7c3.42,0,5.44-1.71,5.44-4.37s-1.89-4.18-5-4.23a17.14,17.14,0,0,0-3.1.22Z"
       transform="translate(-50.5 -227.5)"
       id="path3836" />
  </g>
  <g
     id="symbol">
    <path
       class="cls-4"
       d="M364.46,398V377.59a13.17,13.17,0,0,1-10.63-7.72h-38l5.18,3,14.49,8.36h0L350,389.6,364.46,398Zm0-46.68V330.9L350,339.26l-14.49,8.37L321,356l-5.19,3h38a13.17,13.17,0,0,1,10.63-7.71Zm-29,29.81h0Z"
       transform="translate(-50.5 -227.5)"
       id="path3839" />
    <path
       class="cls-5"
       d="M306.5,353.62V297.44l-14.15,8.18V329.1l14.15,24.52Zm-14.15,2.57v-5.61L297.2,359h0Zm0-50.58-.34.19-3.15,1.82a13.16,13.16,0,0,1-1.37,13.07l4.85,8.41V305.61Zm0,45v5.61L292,356l-14.49-8.36h0L263,339.26l-14.49-8.36L263,322.53l3.16-1.82a13.17,13.17,0,0,0,12,5.35Z"
       transform="translate(-50.5 -227.5)"
       id="path3841" />
    <path
       class="cls-6"
       d="M320.66,305.61l.33.19,3.15,1.82a13.17,13.17,0,0,0,1.37,13.07l-4.86,8.41V305.61Zm0,50.57L321,356l14.49-8.36L350,339.26l14.49-8.36L350,322.54l-3.16-1.82a13.16,13.16,0,0,1-12,5.35l-14.16,24.52ZM306.5,297.43l14.16,8.18V329.1L306.5,353.63h0V330.9h0V297.43Zm14.16,53.15L315.8,359l4.86-2.8v-5.61ZM306.5,330.9h0Z"
       transform="translate(-50.5 -227.5)"
       id="path3843" />
    <path
       class="cls-7"
       d="M248.54,330.9v20.37A13.17,13.17,0,0,1,259.18,359h38L292,356l-14.49-8.36h0L263,339.26l-14.49-8.36Zm0,46.55v20.37L263,389.46l14.49-8.37L292,372.73l5.19-3h-38a13.17,13.17,0,0,1-10.64,7.72Zm29-29.82h0Z"
       transform="translate(-50.5 -227.5)"
       id="path3845" />
    <path
       class="cls-8"
       d="M306.5,431.28l-14.15-8.18V399.61L306.5,375.1v22.72h0v33.46Zm-14.15-53.15,4.85-8.41-4.85,2.8v5.61Zm14.15,19.68h0Zm-14.15,25.29-.33-.19-3.16-1.82A13.18,13.18,0,0,0,287.49,408l4.85-8.41v23.49Zm0-50.57-.34.19-14.49,8.36L263,389.46l-14.49,8.36L263,406.18l3.16,1.82a13.18,13.18,0,0,1,12-5.35l14.15-24.52Z"
       transform="translate(-50.5 -227.5)"
       id="path3847" />
    <path
       class="cls-9"
       d="M320.66,372.53l.33.19,14.49,8.36L350,389.46l14.49,8.36L350,406.19,346.81,408a13.16,13.16,0,0,0-12-5.35l-14.15-24.51v-5.61Zm0,50.57.33-.19,3.15-1.82A13.17,13.17,0,0,1,325.51,408l-4.86-8.41Zm-4.86-53.38,4.86,2.8v5.61l-4.86-8.41Zm4.86,29.89L306.5,375.1v22.72h0v33.46l14.16-8.18Z"
       transform="translate(-50.5 -227.5)"
       id="path3849" />
    <rect
       id="_Slice_"
       data-name="&lt;Slice&gt;"
       class="cls-10"
       width="512"
       height="337" />
    <rect
       id="_Slice_2"
       data-name="&lt;Slice&gt;"
       class="cls-10"
       x="196"
       y="70"
       width="119"
       height="134" />
    <rect
       id="_Slice_3"
       data-name="&lt;Slice&gt;"
       class="cls-10"
       width="512"
       height="297" />
  </g>
</svg>
