<svg id="Text" xmlns="http://www.w3.org/2000/svg" viewBox="0 0 512 337"><defs><style>.cls-1{font-size:45px;fill:#1a5075;font-family:Myriad Pro;font-weight:700;}.cls-2{fill:#c61e1e;}.cls-3{fill:#c61d1d;}.cls-3,.cls-4,.cls-5,.cls-6,.cls-7,.cls-8{fill-rule:evenodd;}.cls-4{fill:#d7d7d7;}.cls-5{fill:#e6361f;}.cls-6{fill:#8b8c8c;}.cls-7{fill:#0083bc;}.cls-8{fill:#1a4f74;}.cls-9{fill:none;}</style></defs><title>open-hsr-logo</title><text class="cls-1" transform="translate(156.01 250.3)">o<tspan x="25.96" y="0">p</tspan><tspan x="53.01" y="0">en</tspan><tspan class="cls-2" x="103.14" y="0">\HSR</tspan></text><path class="cls-3" d="M364.46,397.82V377.45a13.17,13.17,0,0,1-10.63-7.72h-38l5.18,3,14.49,8.36h0L350,389.46l14.49,8.36h0Zm0-46.54V330.9L350,339.26l-14.49,8.37L321,356l-5.19,3h38a13.17,13.17,0,0,1,10.63-7.71h0Zm-29,29.81h0Z" transform="translate(-50.5 -227.5)"/><path class="cls-4" d="M306.5,353.62V297.44l-14.15,8.18V329.1l14.15,24.52h0Zm-14.15,2.57v-5.61L297.2,359h0Zm0-50.58-0.34.19-3.15,1.82a13.16,13.16,0,0,1-1.37,13.07l4.85,8.41V305.61h0Zm0,45v5.61L292,356l-14.49-8.36h0L263,339.26l-14.49-8.36L263,322.53l3.16-1.82a13.17,13.17,0,0,0,12,5.35Z" transform="translate(-50.5 -227.5)"/><path class="cls-5" d="M320.66,305.61L321,305.8l3.15,1.82a13.17,13.17,0,0,0,1.37,13.07l-4.86,8.41V305.61h0Zm0,50.57L321,356l14.49-8.36L350,339.26l14.49-8.36L350,322.54l-3.16-1.82a13.16,13.16,0,0,1-12,5.35l-14.16,24.52v5.61ZM306.5,297.44l14.16,8.18V329.1L306.5,353.62h0V330.9h0V297.44h0Zm14.16,53.14L315.8,359l4.86-2.8v-5.61h0ZM306.5,330.9h0Z" transform="translate(-50.5 -227.5)"/><path class="cls-6" d="M248.54,330.9v20.37A13.17,13.17,0,0,1,259.18,359h38L292,356l-14.49-8.36h0L263,339.26l-14.49-8.36h0Zm0,46.55v20.37L263,389.46l14.49-8.37L292,372.73l5.19-3h-38a13.17,13.17,0,0,1-10.64,7.72h0Zm29-29.82h0Z" transform="translate(-50.5 -227.5)"/><path class="cls-7" d="M306.5,431.28l-14.15-8.18V399.61L306.5,375.1v22.72h0v33.46h0Zm-14.15-53.15,4.85-8.41-4.85,2.8v5.61h0Zm14.15,19.68h0Zm-14.15,25.29-0.33-.19-3.16-1.82A13.18,13.18,0,0,0,287.49,408l4.85-8.41v23.49h0Zm0-50.57-0.34.19-14.49,8.36L263,389.46l-14.49,8.36L263,406.18l3.16,1.82a13.18,13.18,0,0,1,12-5.35l14.15-24.52v-5.61Z" transform="translate(-50.5 -227.5)"/><path class="cls-8" d="M320.66,372.53l0.33,0.19,14.49,8.36L350,389.46l14.49,8.36L350,406.19,346.81,408a13.16,13.16,0,0,0-12-5.35l-14.15-24.51v-5.61h0Zm0,50.57,0.33-.19,3.15-1.82A13.17,13.17,0,0,1,325.51,408l-4.86-8.41v23.49Zm-4.86-53.38,4.86,2.8v5.61l-4.86-8.41h0Zm4.86,29.89L306.5,375.1v22.72h0v33.46l14.16-8.18V399.61Z" transform="translate(-50.5 -227.5)"/><rect id="_Slice_" data-name="&lt;Slice&gt;" class="cls-9" width="512" height="337"/><rect id="_Slice_2" data-name="&lt;Slice&gt;" class="cls-9" x="196" y="70" width="119" height="134"/><rect id="_Slice_3" data-name="&lt;Slice&gt;" class="cls-9" width="512" height="297"/></svg>