<?xml version="1.0" encoding="UTF-8" standalone="no"?>
<!-- Created with Inkscape (http://www.inkscape.org/) -->

<svg
   xmlns:dc="http://purl.org/dc/elements/1.1/"
   xmlns:cc="http://creativecommons.org/ns#"
   xmlns:rdf="http://www.w3.org/1999/02/22-rdf-syntax-ns#"
   xmlns:svg="http://www.w3.org/2000/svg"
   xmlns="http://www.w3.org/2000/svg"
   xmlns:sodipodi="http://sodipodi.sourceforge.net/DTD/sodipodi-0.dtd"
   xmlns:inkscape="http://www.inkscape.org/namespaces/inkscape"
   width="210mm"
   height="297mm"
   viewBox="0 0 210 297"
   version="1.1"
   id="SVGRoot"
   inkscape:version="0.92.4 (unknown)"
   sodipodi:docname="quickstart-ost.svg">
  <defs
     id="defs815">
    <style
       id="style3806">.cls-1{stroke:#ababab;stroke-miterlimit:2.61;stroke-width:0.22px;fill:url(#GradientFill_1);}.cls-2{fill:#1a5075;}.cls-3{fill:#c61e1e;}.cls-4{fill:#c61d1d;}.cls-4,.cls-5,.cls-6,.cls-7,.cls-8,.cls-9{fill-rule:evenodd;}.cls-5{fill:#d7d7d7;}.cls-6{fill:#e6361f;}.cls-7{fill:#8b8c8c;}.cls-8{fill:#0083bc;}.cls-9{fill:#1a4f74;}.cls-10{fill:none;}</style>
    <radialGradient
       gradientUnits="userSpaceOnUse"
       r="259.51"
       cy="169"
       cx="256"
       id="GradientFill_1">
      <stop
         id="stop3808"
         stop-color="#fff"
         offset="0" />
      <stop
         id="stop3810"
         stop-color="#fff"
         offset="0.31" />
      <stop
         id="stop3812"
         stop-color="#f6f6f6"
         offset="1" />
    </radialGradient>
  </defs>
  <sodipodi:namedview
     id="base"
     pagecolor="#ffffff"
     bordercolor="#666666"
     borderopacity="1.0"
     inkscape:pageopacity="0.0"
     inkscape:pageshadow="2"
     inkscape:zoom="1"
     inkscape:cx="180.01396"
     inkscape:cy="817.36352"
     inkscape:document-units="mm"
     inkscape:current-layer="layer2"
     showgrid="false"
     inkscape:window-width="1920"
     inkscape:window-height="1039"
     inkscape:window-x="1920"
     inkscape:window-y="20"
     inkscape:window-maximized="0"
     showguides="true"
     inkscape:guide-bbox="true">
    <sodipodi:guide
       inkscape:color="rgb(0,0,255)"
       inkscape:label=""
       inkscape:locked="false"
       id="guide1372"
       orientation="1,0"
       position="190,0" />
    <sodipodi:guide
       inkscape:color="rgb(0,0,255)"
       inkscape:label=""
       inkscape:locked="true"
       id="guide1374"
       orientation="0,1"
       position="0,285" />
    <sodipodi:guide
       inkscape:color="rgb(0,0,255)"
       inkscape:label=""
       inkscape:locked="false"
       id="guide1376"
       orientation="0,1"
       position="0,20" />
    <sodipodi:guide
       inkscape:color="rgb(0,0,255)"
       inkscape:label=""
       inkscape:locked="false"
       id="guide1378"
       orientation="1,0"
       position="20,0" />
    <sodipodi:guide
       inkscape:color="rgb(0,0,255)"
       inkscape:label=""
       inkscape:locked="false"
       id="guide1778"
       orientation="1,0"
       position="100,0" />
    <sodipodi:guide
       inkscape:color="rgb(0,0,255)"
       inkscape:label=""
       inkscape:locked="false"
       id="guide1780"
       orientation="1,0"
       position="110,0" />
    <sodipodi:guide
       inkscape:locked="false"
       id="guide1786"
       orientation="0,1"
       position="127.5756,32.390371" />
    <inkscape:grid
       id="grid1788"
       type="xygrid" />
    <sodipodi:guide
       inkscape:locked="false"
       id="guide1790"
       orientation="0,1"
       position="127.5756,13.447822" />
    <sodipodi:guide
       inkscape:color="rgb(0,0,255)"
       inkscape:label=""
       inkscape:locked="false"
       id="guide2049"
       orientation="0,1"
       position="0,255" />
    <sodipodi:guide
       inkscape:color="rgb(0,0,255)"
       inkscape:label=""
       inkscape:locked="false"
       id="guide2051"
       orientation="0,1"
       position="0,245.46" />
    <sodipodi:guide
       inkscape:color="rgb(0,0,255)"
       inkscape:label=""
       inkscape:locked="false"
       id="guide2119"
       orientation="1,0"
       position="17.5,0" />
    <sodipodi:guide
       inkscape:color="rgb(0,0,255)"
       inkscape:label=""
       inkscape:locked="false"
       id="guide2121"
       orientation="1,0"
       position="115,0" />
    <sodipodi:guide
       inkscape:color="rgb(0,0,255)"
       inkscape:label=""
       inkscape:locked="false"
       id="guide2137"
       orientation="0,1"
       position="0,140" />
    <sodipodi:guide
       inkscape:color="rgb(0,0,255)"
       inkscape:label=""
       inkscape:locked="false"
       id="guide2139"
       orientation="0,1"
       position="0,130.5" />
    <sodipodi:guide
       inkscape:color="rgb(0,0,255)"
       inkscape:label=""
       inkscape:locked="false"
       id="guide2165"
       orientation="1,0"
       position="112.5,0" />
  </sodipodi:namedview>
  <metadata
     id="metadata818">
    <rdf:RDF>
      <cc:Work
         rdf:about="">
        <dc:format>image/svg+xml</dc:format>
        <dc:type
           rdf:resource="http://purl.org/dc/dcmitype/StillImage" />
        <dc:title />
      </cc:Work>
    </rdf:RDF>
  </metadata>
  <g
     id="layer2"
     inkscape:label="Branding"
     style="display:inline"
     inkscape:groupmode="layer">
    <g
       id="g1693"
       transform="matrix(0.26458333,0,0,0.26458333,97.890605,210.77743)">
      <g
         data-name="open\HSR"
         id="open_HSR"
         style="display:inline"
         transform="translate(-7.0000006)">
        <path
           id="path3822"
           transform="translate(-50.5,-227.5)"
           d="m 231,466.55 c 0,8.05 -5.71,11.75 -11.61,11.75 -6.44,0 -11.38,-4.23 -11.38,-11.34 0,-7.11 4.68,-11.65 11.74,-11.65 6.74,-0.01 11.25,4.62 11.25,11.24 z m -15.93,0.23 c 0,3.78 1.57,6.61 4.5,6.61 2.66,0 4.36,-2.65 4.36,-6.61 0,-3.29 -1.26,-6.62 -4.36,-6.62 -3.29,0 -4.51,3.37 -4.51,6.61 z"
           class="cls-2"
           inkscape:connector-curvature="0"
           style="fill:#1a5075" />
        <path
           id="path3824"
           transform="translate(-50.5,-227.5)"
           d="m 235.22,463.17 c 0,-2.88 -0.09,-5.36 -0.18,-7.38 H 241 l 0.31,3.06 h 0.09 a 8.44,8.44 0 0 1 7.33,-3.55 c 4.81,0 9.13,4.18 9.13,11.2 0,8 -5.08,11.79 -10,11.79 a 6.83,6.83 0 0 1 -5.71,-2.52 h -0.09 v 10.93 h -6.84 z m 6.84,5.17 a 6.79,6.79 0 0 0 0.14,1.44 4.14,4.14 0 0 0 4,3.24 c 3,0 4.72,-2.48 4.72,-6.21 0,-3.51 -1.57,-6.17 -4.63,-6.17 a 4.3,4.3 0 0 0 -4.09,3.46 5.28,5.28 0 0 0 -0.14,1.21 z"
           class="cls-2"
           inkscape:connector-curvature="0"
           style="fill:#1a5075" />
        <path
           id="path3826"
           transform="translate(-50.5,-227.5)"
           d="m 267.53,469 c 0.23,2.83 3,4.18 6.21,4.18 a 19.38,19.38 0 0 0 6.07,-0.9 l 0.9,4.63 a 21.71,21.71 0 0 1 -8,1.35 c -7.47,0 -11.74,-4.32 -11.74,-11.21 0,-5.58 3.46,-11.74 11.11,-11.74 7.11,0 9.81,5.54 9.81,11 a 16.27,16.27 0 0 1 -0.23,2.7 z m 8.05,-4.68 c 0,-1.67 -0.72,-4.46 -3.87,-4.46 -2.88,0 -4,2.61 -4.23,4.46 z"
           class="cls-2"
           inkscape:connector-curvature="0"
           style="fill:#1a5075" />
        <path
           id="path3828"
           transform="translate(-50.5,-227.5)"
           d="m 286,462.81 c 0,-2.75 -0.09,-5.08 -0.18,-7 h 5.94 l 0.31,3 h 0.13 a 8.06,8.06 0 0 1 6.8,-3.51 c 4.5,0 7.87,3 7.87,9.45 v 13 h -6.84 V 465.6 c 0,-2.83 -1,-4.77 -3.46,-4.77 a 3.65,3.65 0 0 0 -3.46,2.56 4.71,4.71 0 0 0 -0.27,1.71 v 12.7 H 286 Z"
           class="cls-2"
           inkscape:connector-curvature="0"
           style="fill:#1a5075" />
        <path
           id="path3830"
           transform="translate(-50.5,-227.5)"
           d="M 319.28,479.6 310.19,447 h 4.54 l 9,32.62 z"
           class="cls-3"
           inkscape:connector-curvature="0"
           style="fill:#c61e1e" />
        <path
           id="path3832"
           transform="translate(-50.5,-227.5)"
           d="m 334.36,447.47 v 11.66 h 11.29 v -11.66 h 6.84 v 30.33 h -6.84 v -12.69 h -11.29 v 12.69 h -6.88 v -30.33 z"
           class="cls-3"
           inkscape:connector-curvature="0"
           style="fill:#c61e1e" />
        <path
           id="path3834"
           transform="translate(-50.5,-227.5)"
           d="m 358.7,470.73 a 17.51,17.51 0 0 0 7.6,1.89 c 3.15,0 4.81,-1.3 4.81,-3.29 0,-1.99 -1.44,-3 -5.08,-4.27 -5,-1.75 -8.32,-4.54 -8.32,-9 0,-5.17 4.32,-9.13 11.47,-9.13 a 18.58,18.58 0 0 1 7.74,1.53 L 375.4,454 a 14.42,14.42 0 0 0 -6.34,-1.44 c -3,0 -4.41,1.35 -4.41,2.92 0,1.94 1.71,2.79 5.63,4.28 5.35,2 7.87,4.77 7.87,9 0,5.08 -3.91,9.41 -12.24,9.41 a 19.86,19.86 0 0 1 -8.59,-1.84 z"
           class="cls-3"
           inkscape:connector-curvature="0"
           style="fill:#c61e1e" />
        <path
           id="path3836"
           transform="translate(-50.5,-227.5)"
           d="m 382.78,447.88 a 60.22,60.22 0 0 1 9.13,-0.63 c 4.5,0 7.65,0.67 9.81,2.38 a 7.7,7.7 0 0 1 2.79,6.34 8,8 0 0 1 -5.35,7.47 v 0.13 c 2.11,0.86 3.28,2.88 4,5.67 0.94,3.42 1.89,7.38 2.47,8.55 h -7 a 38,38 0 0 1 -2.12,-7.06 c -0.81,-3.78 -2.12,-4.82 -4.9,-4.86 h -2.07 v 11.93 h -6.79 z m 6.79,13 h 2.7 c 3.42,0 5.44,-1.71 5.44,-4.37 0,-2.66 -1.89,-4.18 -5,-4.23 a 17.14,17.14 0 0 0 -3.1,0.22 z"
           class="cls-3"
           inkscape:connector-curvature="0"
           style="fill:#c61e1e" />
      </g>
      <g
         id="symbol"
         style="display:inline"
         transform="matrix(0.53492143,0,0,0.53492143,-24.7446,166.04785)">
        <path
           id="path3839"
           transform="translate(-50.5,-227.5)"
           d="m 364.46,398 v -20.41 a 13.17,13.17 0 0 1 -10.63,-7.72 h -38 l 5.18,3 14.49,8.36 v 0 l 14.5,8.37 z m 0,-46.68 V 330.9 L 350,339.26 335.51,347.63 321,356 l -5.19,3 h 38 a 13.17,13.17 0 0 1 10.63,-7.71 z m -29,29.81 z"
           class="cls-4"
           inkscape:connector-curvature="0"
           style="fill:#c61d1d;fill-rule:evenodd" />
        <path
           id="path3841"
           transform="translate(-50.5,-227.5)"
           d="m 306.5,353.62 v -56.18 l -14.15,8.18 v 23.48 z m -14.15,2.57 v -5.61 l 4.85,8.42 v 0 z m 0,-50.58 -0.34,0.19 -3.15,1.82 a 13.16,13.16 0 0 1 -1.37,13.07 l 4.85,8.41 v -23.49 z m 0,45 v 5.61 L 292,356 277.51,347.64 v 0 L 263,339.26 248.51,330.9 263,322.53 l 3.16,-1.82 a 13.17,13.17 0 0 0 12,5.35 z"
           class="cls-5"
           inkscape:connector-curvature="0"
           style="fill:#d7d7d7;fill-rule:evenodd" />
        <path
           id="path3843"
           transform="translate(-50.5,-227.5)"
           d="m 320.66,305.61 0.33,0.19 3.15,1.82 a 13.17,13.17 0 0 0 1.37,13.07 l -4.86,8.41 v -23.49 z m 0,50.57 0.34,-0.18 14.49,-8.36 14.51,-8.38 14.49,-8.36 -14.49,-8.36 -3.16,-1.82 a 13.16,13.16 0 0 1 -12,5.35 l -14.16,24.52 z m -14.16,-58.75 14.16,8.18 v 23.49 l -14.16,24.53 v 0 -22.73 0 z m 14.16,53.15 -4.86,8.42 4.86,-2.8 v -5.61 z M 306.5,330.9 Z"
           class="cls-6"
           inkscape:connector-curvature="0"
           style="fill:#e6361f;fill-rule:evenodd" />
        <path
           id="path3845"
           transform="translate(-50.5,-227.5)"
           d="m 248.54,330.9 v 20.37 a 13.17,13.17 0 0 1 10.64,7.73 h 38 l -5.18,-3 -14.49,-8.36 v 0 L 263,339.26 248.51,330.9 Z m 0,46.55 v 20.37 l 14.46,-8.36 14.49,-8.37 14.51,-8.36 5.19,-3 h -38 a 13.17,13.17 0 0 1 -10.64,7.72 z m 29,-29.82 z"
           class="cls-7"
           inkscape:connector-curvature="0"
           style="fill:#8b8c8c;fill-rule:evenodd" />
        <path
           id="path3847"
           transform="translate(-50.5,-227.5)"
           d="M 306.5,431.28 292.35,423.1 V 399.61 L 306.5,375.1 v 22.72 0 z m -14.15,-53.15 4.85,-8.41 -4.85,2.8 z m 14.15,19.68 z m -14.15,25.29 -0.33,-0.19 -3.16,-1.82 A 13.18,13.18 0 0 0 287.49,408 l 4.85,-8.41 v 23.49 z m 0,-50.57 -0.34,0.19 -14.49,8.36 -14.52,8.38 -14.49,8.36 14.49,8.36 3.16,1.82 a 13.18,13.18 0 0 1 12,-5.35 l 14.15,-24.52 z"
           class="cls-8"
           inkscape:connector-curvature="0"
           style="fill:#0083bc;fill-rule:evenodd" />
        <path
           id="path3849"
           transform="translate(-50.5,-227.5)"
           d="m 320.66,372.53 0.33,0.19 14.49,8.36 14.52,8.38 14.49,8.36 -14.49,8.37 -3.19,1.81 a 13.16,13.16 0 0 0 -12,-5.35 l -14.15,-24.51 z m 0,50.57 0.33,-0.19 3.15,-1.82 A 13.17,13.17 0 0 1 325.51,408 l -4.86,-8.41 z m -4.86,-53.38 4.86,2.8 v 5.61 z m 4.86,29.89 -14.16,-24.51 v 22.72 0 33.46 l 14.16,-8.18 z"
           class="cls-9"
           inkscape:connector-curvature="0"
           style="fill:#1a4f74;fill-rule:evenodd" />
        <rect
           height="134"
           width="119"
           y="70"
           x="196"
           class="cls-10"
           data-name="&lt;Slice&gt;"
           id="_Slice_2"
           style="fill:none" />
      </g>
      <flowRoot
         xml:space="preserve"
         id="flowRoot1695"
         style="font-style:normal;font-variant:normal;font-weight:normal;font-stretch:normal;font-size:40px;line-height:1.25;font-family:'Open Sans';-inkscape-font-specification:'Open Sans';letter-spacing:0px;word-spacing:0px;fill:#000000;fill-opacity:1;stroke:none"
         transform="translate(-369.98024,-796.63912)"><flowRegion
           id="flowRegion1697"
           style="font-style:normal;font-variant:normal;font-weight:normal;font-stretch:normal;font-family:'Open Sans';-inkscape-font-specification:'Open Sans'"><rect
             id="rect1699"
             width="374.48969"
             height="46.797649"
             x="75.590553"
             y="1000.1315"
             style="font-style:normal;font-variant:normal;font-weight:normal;font-stretch:normal;font-family:'Open Sans';-inkscape-font-specification:'Open Sans'" /></flowRegion><flowPara
           id="flowPara1701" /></flowRoot>    </g>
    <flowRoot
       xml:space="preserve"
       id="flowRoot1703"
       style="font-style:normal;font-variant:normal;font-weight:normal;font-stretch:normal;font-size:16px;line-height:1.25;font-family:sans-serif;-inkscape-font-specification:'sans-serif, Normal';font-variant-ligatures:normal;font-variant-caps:normal;font-variant-numeric:normal;font-feature-settings:normal;text-align:start;letter-spacing:0px;word-spacing:0px;writing-mode:lr-tb;text-anchor:start;fill:#000000;fill-opacity:1;stroke:none"
       transform="matrix(0.26458333,0,0,0.26458333,-0.1034686,11.924832)"><flowRegion
         id="flowRegion1705"
         style="font-style:normal;font-variant:normal;font-weight:normal;font-stretch:normal;font-size:16px;font-family:sans-serif;-inkscape-font-specification:'sans-serif, Normal';font-variant-ligatures:normal;font-variant-caps:normal;font-variant-numeric:normal;font-feature-settings:normal;text-align:start;writing-mode:lr-tb;text-anchor:start"><rect
           id="rect1707"
           width="358.38553"
           height="49.853008"
           x="75.590553"
           y="968.97644"
           style="font-style:normal;font-variant:normal;font-weight:normal;font-stretch:normal;font-size:16px;font-family:sans-serif;-inkscape-font-specification:'sans-serif, Normal';font-variant-ligatures:normal;font-variant-caps:normal;font-variant-numeric:normal;font-feature-settings:normal;text-align:start;writing-mode:lr-tb;text-anchor:start" /></flowRegion><flowPara
         id="flowPara1748"
         style="font-style:normal;font-variant:normal;font-weight:bold;font-stretch:normal;font-size:14px;line-height:1.25;font-family:sans-serif;-inkscape-font-specification:'sans-serif Bold'"><flowSpan
   id="flowSpan2163"
   style="font-weight:normal;font-size:14px;-inkscape-font-specification:'sans-serif, Normal'">Linux / macOS Benutzer? </flowSpan>Jetzt Mitglied werden.</flowPara></flowRoot>    <flowRoot
       xml:space="preserve"
       id="flowRoot1732"
       style="font-style:normal;font-weight:normal;font-size:40px;line-height:1.25;font-family:sans-serif;letter-spacing:0px;word-spacing:0px;fill:#000000;fill-opacity:1;stroke:none"
       transform="scale(0.26458333)"><flowRegion
         id="flowRegion1734"><rect
           id="rect1736"
           width="457.49088"
           height="178.79701"
           x="260.61935"
           y="770.98657" /></flowRegion><flowPara
         id="flowPara1738" /></flowRoot>    <flowRoot
       xml:space="preserve"
       id="flowRoot1762"
       style="font-style:normal;font-weight:normal;font-size:40px;line-height:1.25;font-family:sans-serif;letter-spacing:0px;word-spacing:0px;fill:#000000;fill-opacity:1;stroke:none"
       transform="matrix(0.26458333,0,0,0.26458333,-0.94494048,-6.8413693)"><flowRegion
         id="flowRegion1764"><rect
           id="rect1766"
           width="642.51965"
           height="162.55342"
           x="75.590553"
           y="64.251938" /></flowRegion><flowPara
         id="flowPara1770"
         style="font-size:60px;line-height:1.25">Quickstart-Guide</flowPara></flowRoot>    <text
       xml:space="preserve"
       style="font-style:normal;font-weight:normal;font-size:10.58333302px;line-height:1.25;font-family:sans-serif;letter-spacing:0px;word-spacing:0px;fill:#000000;fill-opacity:1;stroke:none;stroke-width:0.26458332"
       x="19.862291"
       y="34.431389"
       id="text1776"><tspan
         sodipodi:role="line"
         id="tspan1774"
         x="19.862291"
         y="34.431389"
         style="font-size:7.05555534px;stroke-width:0.26458332">Für Linux und macOS an der Ost.</tspan></text>
    <text
       xml:space="preserve"
       style="font-style:normal;font-weight:normal;font-size:10.58333302px;line-height:1.25;font-family:sans-serif;letter-spacing:0px;word-spacing:0px;fill:#000000;fill-opacity:1;stroke:none;stroke-width:0.26458332"
       x="19.559862"
       y="281.43256"
       id="text1796"><tspan
         sodipodi:role="line"
         id="tspan1794"
         x="19.559862"
         y="281.43256"
         style="font-size:5.99722242px;stroke-width:0.26458332">openhsr.ch/community</tspan></text>
    <text
       xml:space="preserve"
       style="font-style:normal;font-weight:normal;font-size:10.58333302px;line-height:1.25;font-family:sans-serif;letter-spacing:0px;word-spacing:0px;fill:#000000;fill-opacity:1;stroke:none;stroke-width:0.26458332"
       x="19.940191"
       y="275.82385"
       id="text1802"><tspan
         sodipodi:role="line"
         id="tspan1800"
         x="19.940191"
         y="275.82385"
         style="font-size:2.46944451px;stroke-width:0.26458332">Natürlich kostenlos und unverbindlich.</tspan></text>
    <text
       xml:space="preserve"
       style="font-style:normal;font-weight:normal;font-size:10.58333302px;line-height:1.25;font-family:sans-serif;letter-spacing:0px;word-spacing:0px;display:inline;fill:#000000;fill-opacity:1;stroke:none;stroke-width:0.26458332"
       x="138.41344"
       y="282.71902"
       id="text1796-0"><tspan
         sodipodi:role="line"
         x="138.41344"
         y="282.71902"
         style="font-size:3.52777862px;stroke-width:0.26458332"
         id="tspan2189">Wir wünschen einen guten Start!</tspan></text>
    <g
       style="display:inline"
       id="g2500"
       transform="matrix(0.26458333,0,0,0.26458333,7.8309446,271.39426)">
      <path
         id="path2474"
         d="m 1,17 8,-7 16,1 1,16 -7,8 C 19,35 19.001,29.001 13,23 6.999,16.999 1,17 1,17 Z"
         inkscape:connector-curvature="0"
         style="fill:#a0041e" />
      <path
         id="path2476"
         d="m 0.973,35 c 0,0 -0.036,-7.979 2.985,-11 C 6.979,20.979 15,21.187 15,21.187 15,21.187 14.999,29 11.999,32 c -3,3 -11.026,3 -11.026,3 z"
         inkscape:connector-curvature="0"
         style="fill:#ffac33" />
      <circle
         id="circle2478"
         r="4"
         cy="27"
         cx="8.9989996"
         style="fill:#ffcc4d" />
      <path
         id="path2480"
         d="m 35.999,0 c 0,0 -10,0 -22,10 -6,5 -6,14 -4,16 2,2 11,2 16,-4 10,-12 10,-22 10,-22 z"
         inkscape:connector-curvature="0"
         style="fill:#55acee" />
      <path
         id="path2482"
         d="M 26.999,5 C 25.376,5 23.986,5.971 23.358,7.36 23.86,7.133 24.413,7 24.999,7 c 2.209,0 4,1.791 4,4 0,0.586 -0.133,1.139 -0.359,1.64 1.389,-0.627 2.359,-2.017 2.359,-3.64 0,-2.209 -1.791,-4 -4,-4 z"
         inkscape:connector-curvature="0" />
      <path
         id="path2484"
         d="M 8,28 C 8,28 8,24 9,23 10,22 22.001,12.001 23,13 23.999,13.999 13.999,26 12.999,27 11.999,28 8,28 8,28 Z"
         inkscape:connector-curvature="0"
         style="fill:#a0041e" />
    </g>
  </g>
  <g
     style="display:inline"
     id="g1924"
     transform="matrix(0.26458333,0,0,0.26458333,105.50208,138.25001)"
     inkscape:label="g1924">
    <g
       id="g2135"
       transform="translate(-368.60629,70.771587)"
       inkscape:groupmode="layer">
      <path
         style="fill:#ffcc4d"
         inkscape:connector-curvature="0"
         d="m 36,34 c 0,1.104 -0.896,2 -2,2 H 2 C 0.896,36 0,35.104 0,34 V 15 c 0,-1.104 0.896,-2 2,-2 h 32 c 1.104,0 2,0.896 2,2 z"
         id="path1880" />
      <path
         style="fill:#6d6e71"
         inkscape:connector-curvature="0"
         d="M 34,13 H 2 c -1.104,0 -2,0.896 -2,2 h 36 c 0,-1.104 -0.896,-2 -2,-2 z"
         id="path1882" />
      <path
         style="fill:#3b88c3"
         inkscape:connector-curvature="0"
         d="m 2,24 h 32 v 4 H 2 Z m 0,-6 h 32 v 4 H 2 Z m 0,12 h 32 v 4 H 2 Z"
         id="path1884" />
      <path
         style="fill:#ffcc4d"
         inkscape:connector-curvature="0"
         d="m 28,17 h 2 v 18 h -2 z"
         id="path1886" />
      <path
         style="fill:#ffe8b6"
         inkscape:connector-curvature="0"
         d="M 22,0 H 6 C 4.896,0 4,0.896 4,2 V 36 H 24 V 2 C 24,0.896 23.104,0 22,0 Z"
         id="path1888" />
      <path
         style="fill:#808285"
         inkscape:connector-curvature="0"
         d="M 22,0 H 6 C 4.896,0 4,0.896 4,2 H 24 C 24,0.896 23.104,0 22,0 Z"
         id="path1890" />
      <path
         style="fill:#55acee"
         inkscape:connector-curvature="0"
         d="m 6,18 h 16 v 4 H 6 Z m 0,6 h 16 v 4 H 6 Z m 0,6 h 16 v 4 H 6 Z"
         id="path1892" />
      <path
         style="fill:#ffe8b6"
         inkscape:connector-curvature="0"
         d="m 10,7 h 2 v 29 h -2 z m 6,0 h 2 v 29 h -2 z"
         id="path1894" />
      <path
         style="fill:#226699"
         inkscape:connector-curvature="0"
         d="m 12,30 h 4 v 6 h -4 z"
         id="path1896" />
      <circle
         style="fill:#a7a9ac"
         cx="14"
         cy="9"
         r="6"
         id="circle1898" />
      <circle
         style="fill:#e6e7e8"
         cx="14"
         cy="9"
         r="4"
         id="circle1900" />
      <path
         style="fill:#a0041e"
         inkscape:connector-curvature="0"
         d="M 17,10 H 14 C 13.448,10 13,9.552 13,9 V 4 c 0,-0.552 0.448,-1 1,-1 0.552,0 1,0.448 1,1 v 4 h 2 c 0.552,0 1,0.448 1,1 0,0.552 -0.448,1 -1,1 z"
         id="path1902" />
    </g>
  </g>
  <g
     inkscape:label="Documentation"
     inkscape:groupmode="layer"
     id="layer1">
    <g
       style="display:inline"
       id="g1856"
       transform="matrix(0.26458333,0,0,0.26458333,103.23958,157.01653)">
      <path
         id="path1839"
         d="M 13,3 C 7.477,3 3,7.477 3,13 V 23 H 7 V 13 c 0,-3.313 2.687,-6 6,-6 3.313,0 6,2.687 6,6 v 10 h 4 V 13 C 23,7.477 18.523,3 13,3 Z"
         inkscape:connector-curvature="0"
         style="fill:#aab8c2" />
      <path
         id="path1841"
         d="m 26,32 c 0,2.209 -1.791,4 -4,4 H 4 C 1.791,36 0,34.209 0,32 V 20 c 0,-2.209 1.791,-4 4,-4 h 18 c 2.209,0 4,1.791 4,4 z"
         inkscape:connector-curvature="0"
         style="fill:#ffac33" />
      <path
         id="path1843"
         d="m 35,9 c 0,-4.971 -4.029,-9 -9,-9 -4.971,0 -9,4.029 -9,9 0,3.917 2.507,7.24 6,8.477 V 33.5 c 0,1.381 1.119,2.5 2.5,2.5 1.213,0 2.223,-0.864 2.45,-2.01 0.018,10e-4 0.032,0.01 0.05,0.01 0.553,0 1,-0.447 1,-1 v -1 c 0,-0.553 -0.447,-1 -1,-1 v -1 c 0.553,0 1,-0.447 1,-1 v -2 c 0,-0.553 -0.447,-1 -1,-1 V 23.723 C 28.596,23.376 29,22.739 29,22 V 17.477 C 32.493,16.241 35,12.918 35,9 Z M 26,2 c 1.104,0 2,0.896 2,2 0,1.104 -0.896,2 -2,2 -1.104,0 -2,-0.896 -2,-2 0,-1.104 0.896,-2 2,-2 z"
         inkscape:connector-curvature="0"
         style="fill:#c1694f" />
    </g>
    <g
       inkscape:groupmode="layer"
       id="layer4"
       inkscape:label="account"
       style="display:inline" />
    <g
       style="display:inline"
       id="g1837"
       transform="matrix(0.26458333,0,0,0.26458333,7.9697098,42.005614)">
      <path
         id="path1823"
         d="M 0,4 C 0,0 4,0 4,0 h 28 c 0,0 4,0 4,4 v 28 c 0,0 0,4 -4,4 H 4 c 0,0 -4,0 -4,-4 z"
         inkscape:connector-curvature="0"
         style="fill:#3b88c3" />
      <path
         id="path1825"
         d="m 28,8 h 4 v 20 h -4 z m -6,4 h 4 v 16 h -4 z m -6,4 h 4 v 12 h -4 z m -6,4 h 4 v 8 h -4 z m -6,4 h 4 v 4 H 4 Z"
         inkscape:connector-curvature="0"
         style="fill:#ffffff" />
    </g>
    <g
       inkscape:groupmode="layer"
       id="layer3"
       inkscape:label="wlan" />
    <g
       style="display:inline"
       id="g1878"
       transform="matrix(0.26458333,0,0,0.26458333,102.975,42.109514)">
      <path
         id="path1858"
         d="m 36,27 c 0,2.209 -1.791,4 -4,4 H 4 C 1.791,31 0,29.209 0,27 V 9 C 0,6.791 1.791,5 4,5 h 28 c 2.209,0 4,1.791 4,4 z"
         inkscape:connector-curvature="0"
         style="fill:#ccd6dd" />
      <path
         id="path1860"
         d="M 11.95,17.636 0.637,28.949 C 0.61,28.977 0.6,29.012 0.577,29.04 c 0.34,0.57 0.814,1.043 1.384,1.384 0.029,-0.023 0.063,-0.033 0.09,-0.06 L 13.365,19.05 c 0.39,-0.391 0.39,-1.023 0,-1.414 -0.392,-0.391 -1.024,-0.391 -1.415,0 M 35.423,29.04 C 35.402,29.012 35.39,28.977 35.363,28.95 L 24.051,17.636 c -0.392,-0.391 -1.024,-0.391 -1.415,0 -0.391,0.392 -0.391,1.024 0,1.414 l 11.313,11.314 c 0.026,0.026 0.062,0.037 0.09,0.06 0.571,-0.34 1.044,-0.814 1.384,-1.384"
         inkscape:connector-curvature="0"
         style="fill:#99aab5" />
      <path
         id="path1862"
         d="M 32,5 H 4 C 1.791,5 0,6.791 0,9 v 1.03 l 14.528,14.496 c 1.894,1.893 4.988,1.893 6.884,0 L 36,10.009 V 9 C 36,6.791 34.209,5 32,5 Z"
         inkscape:connector-curvature="0"
         style="fill:#99aab5" />
      <path
         id="path1864"
         d="M 32,5 H 4 C 2.412,5 1.051,5.934 0.405,7.275 l 14.766,14.767 c 1.562,1.562 4.096,1.562 5.657,0 L 35.595,7.275 C 34.949,5.934 33.589,5 32,5 Z"
         inkscape:connector-curvature="0"
         style="fill:#e1e8ed" />
    </g>
    <g
       inkscape:groupmode="layer"
       id="layer5"
       inkscape:label="email" />
    <g
       inkscape:groupmode="layer"
       id="layer6"
       inkscape:label="vpn" />
    <flowRoot
       xml:space="preserve"
       id="flowRoot2053"
       style="font-style:normal;font-weight:normal;font-size:40px;line-height:1.25;font-family:sans-serif;letter-spacing:0px;word-spacing:0px;fill:#000000;fill-opacity:1;stroke:none"
       transform="scale(0.26458333)"><flowRegion
         id="flowRegion2055"><rect
           id="rect2057"
           width="179.95868"
           height="40.305088"
           x="164.40233"
           y="245.70724" /></flowRegion><flowPara
         id="flowPara2059">asdfasdfasdfasdfasdf</flowPara></flowRoot>    <text
       xml:space="preserve"
       style="font-style:normal;font-weight:normal;font-size:10.58333302px;line-height:1.25;font-family:sans-serif;letter-spacing:0px;word-spacing:0px;fill:#000000;fill-opacity:1;stroke:none;stroke-width:0.26458332"
       x="19.818104"
       y="50.262131"
       id="text2063"><tspan
         sodipodi:role="line"
         id="tspan2061"
         x="19.818104"
         y="50.262131"
         style="stroke-width:0.26458332">WLAN</tspan></text>
    <text
       xml:space="preserve"
       style="font-style:normal;font-weight:normal;font-size:10.58333302px;line-height:1.25;font-family:sans-serif;letter-spacing:0px;word-spacing:0px;fill:#000000;fill-opacity:1;stroke:none;stroke-width:0.26458332"
       x="114.22958"
       y="50.748901"
       id="text2063-3"><tspan
         sodipodi:role="line"
         id="tspan2061-9"
         x="114.22958"
         y="50.748901"
         style="stroke-width:0.26458332">E-Mail</tspan></text>
    <text
       xml:space="preserve"
       style="font-style:normal;font-weight:normal;font-size:10.58333302px;line-height:1.25;font-family:sans-serif;letter-spacing:0px;word-spacing:0px;fill:#000000;fill-opacity:1;stroke:none;stroke-width:0.26458332"
       x="114.50277"
       y="165.62354"
       id="text2063-8"><tspan
         sodipodi:role="line"
         id="tspan2061-4"
         x="114.50277"
         y="165.62354"
         style="stroke-width:0.26458332">Ost-Account</tspan></text>
    <text
       xml:space="preserve"
       style="font-style:normal;font-weight:normal;font-size:10.58333302px;line-height:1.25;font-family:sans-serif;letter-spacing:0px;word-spacing:0px;fill:#000000;fill-opacity:1;stroke:none;stroke-width:0.26458332"
       x="20.029892"
       y="165.46535"
       id="text2063-0"><tspan
         sodipodi:role="line"
         id="tspan2061-8"
         x="20.029892"
         y="165.46535"
         style="stroke-width:0.26458332">VPN</tspan></text>
    <flowRoot
       xml:space="preserve"
       id="flowRoot2141"
       style="font-style:normal;font-weight:normal;font-size:40px;line-height:1.25;font-family:sans-serif;letter-spacing:0px;word-spacing:0px;fill:#000000;fill-opacity:1;stroke:none"
       transform="matrix(0.26458333,0,0,0.26458333,-4.7625,-5.2368696)"><flowRegion
         id="flowRegion2143"><rect
           id="rect2145"
           width="283.46457"
           height="398.58899"
           x="94.48819"
           y="194.79681" /></flowRegion><flowPara
         id="flowPara2147"
         style="font-size:16px">Rhabarber Font size 12</flowPara><flowPara
         style="font-size:14.66666698px"
         id="flowPara2149">Rhabarber Font Size 11</flowPara><flowPara
         style="font-size:13.33333397px"
         id="flowPara2151">Rhabarber Font Size 10</flowPara><flowPara
         style="font-size:12px"
         id="flowPara2153">Rhabarber Font Size 09</flowPara><flowPara
         style="font-size:10.66666698px"
         id="flowPara2155">Rhabarber Font Size 08</flowPara><flowPara
         style="font-size:9.33333302px"
         id="flowPara2157">Rhabarber Font Size 07</flowPara><flowPara
         style="font-size:8px"
         id="flowPara2159">Rhabarber Font Size 06</flowPara><flowPara
         style="font-size:6.66666698px"
         id="flowPara2161">Rhabarber Font Size 05</flowPara></flowRoot>  </g>
</svg>
